<svg width="218" height="39" viewBox="0 0 218 39" fill="none" xmlns="http://www.w3.org/2000/svg">
<path d="M16.0428 26.8064C13.8664 25.998 11.6279 25.8737 9.5759 26.4333C8.14572 26.8064 6.77772 27.5526 5.53408 28.4853L4.66352 29.2315L4.41479 29.4802L4.97443 29.9777C5.03661 29.9777 5.03662 30.0399 5.0988 30.102C5.22316 30.2264 5.34753 30.2886 5.53408 30.4129L5.90715 30.6617L6.28025 30.3508C6.34243 30.2886 6.46679 30.1642 6.59116 30.102C7.71043 29.1693 8.95406 28.5475 10.2599 28.2366C11.9388 27.8013 13.7421 27.8635 15.5453 28.5475C17.0377 29.1071 20.0846 29.7911 23.7533 28.2366L23.8777 28.1744L24.0643 27.9879C24.0643 27.9257 24.1264 27.9257 24.1886 27.8635C24.4995 27.4904 24.8104 27.1173 25.0592 26.682L26.3028 24.7544L24.313 25.8737C21.3904 27.4904 18.7166 27.8013 16.0428 26.8064Z" fill="#34C759"/>
<path d="M7.52389 20.0906C9.20279 19.6553 11.0061 19.7175 12.8093 20.4015C14.7992 21.1477 19.8981 22.2048 25.6188 17.0437L26.5515 16.111L26.6137 16.0488L26.8624 15.8001L26.7381 15.4891C26.6759 15.2404 26.5515 14.9295 26.4272 14.6186L26.1162 13.748L25.4944 14.3699C25.4322 14.4942 25.3079 14.5564 25.1835 14.6808C22.4475 17.479 18.2192 20.3393 13.369 18.5982C11.1926 17.7899 8.95407 17.6655 6.90207 18.2251C4.91225 18.7848 3.17115 19.8419 1.55443 21.3342V21.2721L0.6217 22.267C0.6217 22.3291 0.55953 22.3292 0.497348 22.3913L0.310791 22.5779L0.372977 22.8266C0.435158 23.1375 0.559518 23.4484 0.6217 23.7593L0.994795 24.7542L1.61661 23.9459C1.67879 23.8215 1.80315 23.7593 1.86534 23.635C3.17115 22.4535 4.97443 20.7746 7.52389 20.0906Z" fill="#34C759"/>
<path d="M1.49238 18.9715C2.92256 17.4792 4.53928 16.5464 6.28037 16.049C7.95928 15.6137 9.76255 15.6759 11.5658 16.3599C17.1622 18.4119 22.0124 15.0541 24.1266 13.2508L24.9349 12.4424L25.2458 12.1937L24.9971 11.8206C24.8106 11.6341 24.6862 11.3854 24.4997 11.1366L24.1266 10.6392L23.6913 11.0744C23.6291 11.1366 23.5047 11.261 23.4426 11.3232C20.8309 13.8104 16.7891 16.3599 12.1876 14.6188C10.0113 13.8104 7.77273 13.6861 5.72073 14.2457C4.41492 14.6188 3.17128 15.2406 1.92764 16.049L0.621818 17.1061C0.497455 17.2304 0.435273 17.2926 0.310909 17.417L0.186557 17.5413V17.7279C0.124375 18.1632 0.124367 18.5984 0.0621856 18.9715L0 20.5261L1.0571 19.4068C1.18146 19.2824 1.30583 19.0959 1.49238 18.9715Z" fill="#34C759"/>
<path d="M17.8461 31.0349L17.7217 31.408L17.8461 31.0349C17.6595 30.9727 17.5352 30.9105 17.3486 30.8483C15.1723 30.04 12.9337 29.9156 10.8817 30.4753C10.4464 30.5996 10.0112 30.724 9.5759 30.9105L8.08352 31.5945L7.71045 31.7811L8.95409 32.2163C9.32718 32.3407 9.70026 32.4651 10.0734 32.5894L10.2599 32.6516L10.4464 32.5894C10.633 32.5273 10.8195 32.4029 11.0061 32.4029C11.1304 32.4029 11.2548 32.3407 11.3792 32.2785C12.8715 31.9054 14.4883 31.9054 16.2293 32.4651C16.4159 32.5272 16.5403 32.5894 16.7268 32.6516L17.0377 32.776L17.2243 32.7138C17.6595 32.5894 18.157 32.4651 18.5301 32.2785L20.2712 31.6567L18.4679 31.2214C18.2814 31.1592 18.0326 31.0971 17.8461 31.0349Z" fill="#34C759"/>
<path d="M27.36 18.1631L26.4273 19.0958C26.3029 19.2202 26.1786 19.3445 26.0542 19.4689C23.5047 21.894 19.4007 24.5056 14.7993 22.7645C12.6229 21.9562 10.3844 21.8318 8.33237 22.3915C6.40473 22.9511 4.66363 23.946 3.10908 25.4384L2.30073 26.3089L2.052 26.6198L2.30073 26.9929C2.48727 27.2416 2.61164 27.4282 2.73601 27.6769L3.10908 28.2365L3.54436 27.6769C3.60654 27.6147 3.7309 27.4904 3.79309 27.4282C5.28545 25.8114 6.90218 24.8165 8.76763 24.3191C10.4465 23.8838 12.2498 23.946 14.0531 24.63C15.6076 25.1896 17.2244 25.3762 18.8411 25.1896C21.7015 24.8787 24.5618 23.262 26.676 21.4587C26.8004 21.3344 26.9247 21.2722 27.0491 21.1478L27.2356 20.9613V20.7747C27.2356 20.4016 27.2978 19.9664 27.2978 19.5933L27.36 18.1631Z" fill="#34C759"/>
<path d="M3.73094 12.4423L3.5444 12.0692L3.73094 12.4423C4.10403 12.2557 4.53932 12.1313 4.91241 12.007C6.59132 11.5717 8.39459 11.6339 10.1979 12.3179C11.3793 12.7532 12.5608 12.9397 13.8666 12.9397C16.4782 12.9397 19.0899 12.007 21.5149 10.2037L22.4477 9.45752L22.7586 9.20879L22.1989 8.77351C22.0124 8.58697 21.7637 8.40043 21.5149 8.27607L21.1418 8.02734L20.8309 8.27607C20.7066 8.33825 20.6444 8.46261 20.52 8.52479C17.2244 11.0121 13.9288 11.6961 10.8197 10.5146C8.58114 9.70625 6.34258 9.51971 4.10403 10.2037C3.91749 10.2659 3.73094 10.3281 3.48222 10.3902L3.35786 10.4524L3.17131 10.639C3.17131 10.7012 3.10914 10.7012 3.04695 10.7633C2.79823 11.1364 2.48731 11.4473 2.23858 11.8204L1.05713 13.6237L2.98477 12.6288C3.29568 12.6288 3.54439 12.5044 3.73094 12.4423Z" fill="#34C759"/>
<path d="M8.82991 8.21393L9.01645 8.27611C9.82482 8.58702 11.0685 8.89793 12.623 8.89793C14.2397 8.89793 15.7943 8.52484 17.3488 7.90302L19.2765 6.97029L17.9706 6.53503C17.5976 6.41067 17.2245 6.2863 16.7892 6.22412H16.6026L16.4161 6.28629C16.2296 6.34847 16.043 6.47285 15.8565 6.53503C13.991 7.21903 12.1255 7.34339 10.3223 6.84594C10.1357 6.78376 9.94919 6.72156 9.76264 6.65938L9.5761 6.5972L9.38955 6.65938C9.01646 6.78375 8.64337 6.90812 8.27028 7.09466L6.84009 7.71648L8.33247 8.15174C8.45683 8.08956 8.64337 8.15175 8.82991 8.21393Z" fill="#34C759"/>
<path d="M39.5239 30V19.388C39.5239 18.8093 39.5052 18.2213 39.4679 17.624C39.4305 17.0267 39.3745 16.4387 39.2999 15.86H42.6879L42.9679 18.66H42.6319C43.0239 17.6893 43.6212 16.9333 44.4239 16.392C45.2452 15.8507 46.2159 15.58 47.3359 15.58C48.4559 15.58 49.3799 15.8507 50.1079 16.392C50.8545 16.9147 51.3772 17.736 51.6759 18.856H51.2279C51.6199 17.848 52.2639 17.0547 53.1599 16.476C54.0559 15.8787 55.0825 15.58 56.2399 15.58C57.8265 15.58 59.0119 16.0467 59.7959 16.98C60.5799 17.9133 60.9719 19.3693 60.9719 21.348V30H57.4719V21.488C57.4719 20.368 57.2852 19.5653 56.9119 19.08C56.5385 18.576 55.9412 18.324 55.1199 18.324C54.1492 18.324 53.3839 18.6693 52.8239 19.36C52.2639 20.032 51.9839 20.9467 51.9839 22.104V30H48.4839V21.488C48.4839 20.368 48.2972 19.5653 47.9239 19.08C47.5505 18.576 46.9532 18.324 46.1319 18.324C45.1612 18.324 44.3959 18.6693 43.8359 19.36C43.2945 20.032 43.0239 20.9467 43.0239 22.104V30H39.5239ZM71.0915 30.28C69.6355 30.28 68.3755 29.9813 67.3115 29.384C66.2475 28.7867 65.4168 27.9373 64.8195 26.836C64.2408 25.7347 63.9515 24.428 63.9515 22.916C63.9515 21.404 64.2408 20.1067 64.8195 19.024C65.4168 17.9227 66.2475 17.0733 67.3115 16.476C68.3755 15.8787 69.6355 15.58 71.0915 15.58C72.5475 15.58 73.8075 15.8787 74.8715 16.476C75.9541 17.0733 76.7848 17.9227 77.3635 19.024C77.9608 20.1067 78.2595 21.404 78.2595 22.916C78.2595 24.428 77.9608 25.7347 77.3635 26.836C76.7848 27.9373 75.9541 28.7867 74.8715 29.384C73.8075 29.9813 72.5475 30.28 71.0915 30.28ZM71.0915 27.592C72.1928 27.592 73.0701 27.2093 73.7235 26.444C74.3768 25.66 74.7035 24.484 74.7035 22.916C74.7035 21.348 74.3768 20.1813 73.7235 19.416C73.0701 18.6507 72.1928 18.268 71.0915 18.268C69.9901 18.268 69.1128 18.6507 68.4595 19.416C67.8061 20.1813 67.4795 21.348 67.4795 22.916C67.4795 24.484 67.8061 25.66 68.4595 26.444C69.1128 27.2093 69.9901 27.592 71.0915 27.592ZM81.2778 30V19.388C81.2778 18.8093 81.2591 18.2213 81.2218 17.624C81.1844 17.0267 81.1284 16.4387 81.0538 15.86H84.4418L84.7218 18.66H84.3858C84.8338 17.6707 85.4964 16.9147 86.3738 16.392C87.2511 15.8507 88.2684 15.58 89.4258 15.58C91.0871 15.58 92.3378 16.0467 93.1778 16.98C94.0178 17.9133 94.4378 19.3693 94.4378 21.348V30H90.9378V21.516C90.9378 20.3773 90.7138 19.5653 90.2658 19.08C89.8364 18.576 89.1831 18.324 88.3058 18.324C87.2231 18.324 86.3644 18.66 85.7298 19.332C85.0951 20.004 84.7778 20.9 84.7778 22.02V30H81.2778ZM104.981 30.28C102.61 30.28 100.753 29.6267 99.4089 28.32C98.0649 27.0133 97.3929 25.2213 97.3929 22.944C97.3929 21.4693 97.6822 20.1813 98.2609 19.08C98.8395 17.9787 99.6422 17.12 100.669 16.504C101.714 15.888 102.928 15.58 104.309 15.58C105.672 15.58 106.81 15.8693 107.725 16.448C108.64 17.0267 109.33 17.8387 109.797 18.884C110.282 19.9293 110.525 21.152 110.525 22.552V23.476H100.221V21.628H108.033L107.557 22.02C107.557 20.7133 107.277 19.7147 106.717 19.024C106.176 18.3333 105.382 17.988 104.337 17.988C103.18 17.988 102.284 18.3987 101.649 19.22C101.033 20.0413 100.725 21.1893 100.725 22.664V23.028C100.725 24.5587 101.098 25.7067 101.845 26.472C102.61 27.2187 103.684 27.592 105.065 27.592C105.868 27.592 106.614 27.4893 107.305 27.284C108.014 27.06 108.686 26.7053 109.321 26.22L110.357 28.572C109.685 29.1133 108.882 29.5333 107.949 29.832C107.016 30.1307 106.026 30.28 104.981 30.28ZM112.99 36.356L112.178 33.584C113.055 33.3973 113.793 33.1827 114.39 32.94C114.987 32.6973 115.482 32.38 115.874 31.988C116.266 31.596 116.593 31.092 116.854 30.476L117.554 28.824L117.47 30.196L111.31 15.86H115.034L119.458 26.892H118.646L123.098 15.86H126.626L120.186 30.784C119.757 31.792 119.29 32.6227 118.786 33.276C118.282 33.948 117.741 34.48 117.162 34.872C116.583 35.2827 115.949 35.6 115.258 35.824C114.567 36.048 113.811 36.2253 112.99 36.356ZM128.473 30V19.388C128.473 18.8093 128.454 18.2213 128.417 17.624C128.38 17.0267 128.324 16.4387 128.249 15.86H131.637L131.917 18.66H131.581C131.973 17.6893 132.57 16.9333 133.373 16.392C134.194 15.8507 135.165 15.58 136.285 15.58C137.405 15.58 138.329 15.8507 139.057 16.392C139.804 16.9147 140.326 17.736 140.625 18.856H140.177C140.569 17.848 141.213 17.0547 142.109 16.476C143.005 15.8787 144.032 15.58 145.189 15.58C146.776 15.58 147.961 16.0467 148.745 16.98C149.529 17.9133 149.921 19.3693 149.921 21.348V30H146.421V21.488C146.421 20.368 146.234 19.5653 145.861 19.08C145.488 18.576 144.89 18.324 144.069 18.324C143.098 18.324 142.333 18.6693 141.773 19.36C141.213 20.032 140.933 20.9467 140.933 22.104V30H137.433V21.488C137.433 20.368 137.246 19.5653 136.873 19.08C136.5 18.576 135.902 18.324 135.081 18.324C134.11 18.324 133.345 18.6693 132.785 19.36C132.244 20.032 131.973 20.9467 131.973 22.104V30H128.473ZM159.117 30.28C157.885 30.28 156.802 29.9907 155.869 29.412C154.935 28.8147 154.207 27.9653 153.685 26.864C153.162 25.7627 152.901 24.4467 152.901 22.916C152.901 21.3853 153.162 20.0787 153.685 18.996C154.207 17.8947 154.935 17.0547 155.869 16.476C156.802 15.8787 157.885 15.58 159.117 15.58C160.311 15.58 161.357 15.8787 162.253 16.476C163.167 17.0547 163.774 17.8387 164.073 18.828H163.765L164.073 15.86H167.433C167.377 16.4387 167.321 17.0267 167.265 17.624C167.227 18.2213 167.209 18.8093 167.209 19.388V30H163.737L163.709 27.088H164.045C163.746 28.0587 163.139 28.8333 162.225 29.412C161.31 29.9907 160.274 30.28 159.117 30.28ZM160.097 27.592C161.198 27.592 162.085 27.2093 162.757 26.444C163.429 25.66 163.765 24.484 163.765 22.916C163.765 21.348 163.429 20.1813 162.757 19.416C162.085 18.6507 161.198 18.268 160.097 18.268C158.995 18.268 158.109 18.6507 157.437 19.416C156.765 20.1813 156.429 21.348 156.429 22.916C156.429 24.484 156.755 25.66 157.409 26.444C158.081 27.2093 158.977 27.592 160.097 27.592ZM171.02 36.048V19.388C171.02 18.8093 171.001 18.2213 170.964 17.624C170.927 17.0267 170.871 16.4387 170.796 15.86H174.184L174.492 18.828H174.184C174.464 17.8387 175.052 17.0547 175.948 16.476C176.863 15.8787 177.917 15.58 179.112 15.58C180.363 15.58 181.455 15.8787 182.388 16.476C183.321 17.0547 184.049 17.8947 184.572 18.996C185.095 20.0787 185.356 21.3853 185.356 22.916C185.356 24.4467 185.095 25.7627 184.572 26.864C184.049 27.9653 183.321 28.8147 182.388 29.412C181.455 29.9907 180.363 30.28 179.112 30.28C177.936 30.28 176.9 29.9907 176.004 29.412C175.108 28.8333 174.511 28.0587 174.212 27.088H174.52V36.048H171.02ZM178.132 27.592C179.252 27.592 180.148 27.2093 180.82 26.444C181.492 25.66 181.828 24.484 181.828 22.916C181.828 21.348 181.492 20.1813 180.82 19.416C180.148 18.6507 179.252 18.268 178.132 18.268C177.031 18.268 176.144 18.6507 175.472 19.416C174.8 20.1813 174.464 21.348 174.464 22.916C174.464 24.484 174.8 25.66 175.472 26.444C176.144 27.2093 177.031 27.592 178.132 27.592ZM187.472 30V26.108H191.392V30H187.472ZM200.187 30.28C198.955 30.28 197.872 29.9907 196.939 29.412C196.006 28.8147 195.278 27.9653 194.755 26.864C194.232 25.7627 193.971 24.4467 193.971 22.916C193.971 21.3853 194.232 20.0787 194.755 18.996C195.278 17.8947 196.006 17.0547 196.939 16.476C197.872 15.8787 198.955 15.58 200.187 15.58C201.382 15.58 202.427 15.8787 203.323 16.476C204.238 17.0547 204.844 17.8387 205.143 18.828H204.835L205.143 15.86H208.503C208.447 16.4387 208.391 17.0267 208.335 17.624C208.298 18.2213 208.279 18.8093 208.279 19.388V30H204.807L204.779 27.088H205.115C204.816 28.0587 204.21 28.8333 203.295 29.412C202.38 29.9907 201.344 30.28 200.187 30.28ZM201.167 27.592C202.268 27.592 203.155 27.2093 203.827 26.444C204.499 25.66 204.835 24.484 204.835 22.916C204.835 21.348 204.499 20.1813 203.827 19.416C203.155 18.6507 202.268 18.268 201.167 18.268C200.066 18.268 199.179 18.6507 198.507 19.416C197.835 20.1813 197.499 21.348 197.499 22.916C197.499 24.484 197.826 25.66 198.479 26.444C199.151 27.2093 200.047 27.592 201.167 27.592ZM212.09 30V15.86H215.59V30H212.09ZM211.894 13.2V9.784H215.786V13.2H211.894Z" fill="white"/>
</svg>
